HIERARCHY
ROOT Hips
{
  OFFSET -35.2597 29.1586 114.425
  CHANNELS 6 Xposition Yposition Zposition Zrotation Xrotation Yrotation
  JOINT LeftUpLeg
  {
    OFFSET 8.64259 1.95398 -2.38835
    CHANNELS 3 Zrotation Xrotation Yrotation
    JOINT LeftLeg
    {
      OFFSET 43.7702 0 0
      CHANNELS 3 Zrotation Xrotation Yrotation
      JOINT LeftFoot
      {
        OFFSET 40.6238 0 0
        CHANNELS 3 Zrotation Xrotation Yrotation
        JOINT LeftToeBase
        {
          OFFSET 12.7242 0 0
          CHANNELS 3 Zrotation Xrotation Yrotation
          End Site
          {
            OFFSET 0 0 0
          }
        }
      }
    }
  }
  JOINT RightUpLeg
  {
    OFFSET -8.2249 1.95398 -2.59336
    CHANNELS 3 Zrotation Xrotation Yrotation
    JOINT RightLeg
    {
      OFFSET 43.5653 0 0
      CHANNELS 3 Zrotation Xrotation Yrotation
      JOINT RightFoot
      {
        OFFSET 40.6238 0 0
        CHANNELS 3 Zrotation Xrotation Yrotation
        JOINT RightToeBase
        {
          OFFSET 12.7242 0 0
          CHANNELS 3 Zrotation Xrotation Yrotation
          End Site
          {
            OFFSET 0 0 0
          }
        }
      }
    }
  }
  JOINT Spine
  {
    OFFSET 0.165834 0.87714 6.61349
    CHANNELS 3 Zrotation Xrotation Yrotation
    JOINT Spine1
    {
      OFFSET 7.38963 1.71661e-005 0
      CHANNELS 3 Zrotation Xrotation Yrotation
      JOINT Spine2
      {
        OFFSET 11.9445 1.14441e-005 0
        CHANNELS 3 Zrotation Xrotation Yrotation
        JOINT Spine3
        {
          OFFSET 14.7254 4.19617e-005 0
          CHANNELS 3 Zrotation Xrotation Yrotation
          JOINT Spine4
          {
            OFFSET 10.9679 0 0
            CHANNELS 3 Zrotation Xrotation Yrotation
            JOINT RightShoulder
            {
              OFFSET 2.46616 -1.6653 3.69651
              CHANNELS 3 Zrotation Xrotation Yrotation
              JOINT RightArm
              {
                OFFSET 13.0012 0 0
                CHANNELS 3 Zrotation Xrotation Yrotation
                JOINT RightForeArm
                {
                  OFFSET 28.7848 1.62311e-005 0
                  CHANNELS 3 Zrotation Xrotation Yrotation
                  JOINT RightHand
                  {
                    OFFSET 26.5688 1.62095e-005 0
                    CHANNELS 3 Zrotation Xrotation Yrotation
                    End Site
                    {
                      OFFSET 0 0 0
                    }
                  }
                }
              }
            }
            JOINT LeftShoulder
            {
              OFFSET 2.38034 -1.29275 -3.7523
              CHANNELS 3 Zrotation Xrotation Yrotation
              JOINT LeftArm
              {
                OFFSET 16.3182 6.07031e-005 0
                CHANNELS 3 Zrotation Xrotation Yrotation
                JOINT LeftForeArm
                {
                  OFFSET 27.0901 0 0
                  CHANNELS 3 Zrotation Xrotation Yrotation
                  JOINT LeftHand
                  {
                    OFFSET 24.5451 1.51738e-005 0
                    CHANNELS 3 Zrotation Xrotation Yrotation
                    End Site
                    {
                      OFFSET 0 0 0
                    }
                  }
                }
              }
            }
            JOINT Neck
            {
              OFFSET 5.0226 -0.0266342 0
              CHANNELS 3 Zrotation Xrotation Yrotation
              JOINT Head
              {
                OFFSET 6.69364 2.86102e-005 0
                CHANNELS 3 Zrotation Xrotation Yrotation
                End Site
                {
                  OFFSET 0 0 0
                }
              }
            }
          }
        }
      }
    }
  }
}
MOTION
Frames:	10
Frame Time:	0.0416667
39.1476 98.4699 20.5627 101.665 -60.1937 104.495 -174.228 -9.02086 88.3524 -19.2267 26.9059 0.0464325 79.7204 13.7427 -0.301974 10.1704 -13.2855 4.29908 178.03 15.6713 92.2934 -15.1715 -6.54453 -0.768091 63.0545 -2.61401 -1.11799 25.401 0.0399498 4.30336 -0.796998 8.06153 -90.5066 10.7438 -1.82051 -0.839943 -0.926101 -1.85572 -0.758995 -23.4666 -1.48391 -1.3483 -3.45394 -1.48392 -1.34832 86.9415 -37.8271 -109.482 39.5238 11.531 7.77949 -5.00144 -37.3497 -5.28449 -20.4753 2.41303 -18.9308 -86.477 -52.6229 84.4132 -29.3637 -7.63683 -38.1038 3.2242 33.1691 -4.28816 7.18353 -0.929446 -14.1973 3.30418 -0.409394 -8.72856 -1.82712 1.06882 -0.348045 
42.6048 96.4922 29.1395 99.7082 -56.2178 102.395 -171.377 -15.413 92.2868 -17.8114 32.2045 -0.491459 83.1333 16.5782 -0.568374 12.3207 -12.0768 4.59101 177.359 17.4866 94.5718 -5.92648 -4.22912 2.07635 63.1895 -2.21527 1.46152 30.1483 -1.02419 1.59602 -0.857879 8.07126 -90.5318 10.7236 -1.95343 -0.87799 -0.946103 -1.99019 -0.791142 -23.4874 -1.59929 -1.42455 -3.47476 -1.59927 -1.42456 87.1473 -38.7855 -108.766 38.2335 12.3584 10.4517 -4.99846 -37.2985 -5.28294 -17.2391 1.9789 -18.7893 -86.4447 -52.4252 84.4293 -31.0301 -5.5925 -42.2571 3.38011 36.5455 -4.44764 7.1559 -1.28865 -18.8056 4.07754 -0.816059 -10.6367 -1.72188 1.05787 -0.354974 
47.6709 95.5979 38.4236 99.8485 -52.4948 102.793 -170.293 -20.3379 94.6904 -21.2372 34.8477 1.94326 77.478 13.6531 2.80687 21.4592 -5.32401 2.71314 178.573 21.3717 96.2617 -20.426 -10.8951 0.494455 58.3504 1.97871 -0.900044 22.3073 1.07943 4.73683 -1.00699 8.0415 -90.7008 10.7787 -2.32845 -1.17796 -0.890604 -2.37805 -1.07431 -23.4332 -1.8668 -1.82338 -3.42053 -1.86681 -1.82337 87.9243 -39.5301 -107.159 37.8669 12.2653 9.3448 -5.04869 -38.1257 -5.30916 -17.0589 1.23922 -13.8421 -86.5725 -53.9377 84.4653 -31.8139 -5.74456 -38.0146 3.46896 38.1559 -4.53105 9.10113 -1.40125 -17.3619 4.70751 -0.445963 -8.23259 -2.38466 1.0662 -1.88528 
53.2207 95.8334 47.1227 100.228 -49.2297 104.095 -171.476 -12.2488 96.7335 -42.3461 35.5286 5.01872 61.1741 1.01981 1.47615 26.2448 0.132639 -2.94898 177.41 19.515 97.6496 -31.2356 -7.96197 1.20562 62.3528 -0.811902 -1.29476 21.5087 2.03928 2.97482 -0.897672 7.96071 -91.0297 10.9307 -2.26345 -1.83501 -0.73942 -2.34199 -1.73362 -23.273 -1.60749 -2.43027 -3.26034 -1.60751 -2.43028 88.1569 -37.9067 -107.312 38.3068 11.8424 7.55616 -5.00557 -37.416 -5.28652 -17.3387 1.70821 -16.8367 -86.9601 -54.2574 83.9555 -33.1783 -6.64377 -27.7033 3.46345 38.2406 -4.53554 2.97834 -0.331417 -10.1532 4.85717 -0.415226 -6.05095 -2.91614 0.69649 -0.58051 
57.5806 96.6547 54.0594 101.818 -46.5471 105.369 -172.993 1.71652 98.0473 -60.555 22.4023 4.58 54.3424 -4.16237 -3.20939 16.5888 -8.65044 3.58251 177.061 12.7611 98.4614 -32.603 -6.32161 1.50496 67.4778 -4.42869 -3.31266 24.6449 0.963498 2.38795 -0.455367 8.18395 -91.1087 10.4867 -1.41568 -2.07697 -1.185 -1.50569 -2.01269 -23.7091 -0.726205 -2.40624 -3.69649 -0.726217 -2.40625 87.477 -37.6482 -108.606 37.4853 10.9583 1.0289 -5.15379 -39.7994 -5.36619 -20.0764 2.26113 -18.3793 -87.5083 -55.5976 83.3801 -29.8241 -9.7905 -20.4064 3.98332 46.6154 -5.06172 -4.64623 0.02544 -10.063 5.50549 -0.906829 -4.9414 -1.1204 0.0371477 -1.41695 
61.7416 98.1823 59.8987 101.136 -45.5224 101.972 -174.219 13.8446 92.4732 -59.0024 9.43119 2.61876 68.1902 5.82258 2.24189 15.2869 -10.4588 4.94187 176.518 6.0395 96.3097 -28.7297 -5.26922 0.811758 70.2056 -5.97997 -2.87634 25.1572 0.965749 1.75849 0.0963453 8.23008 -90.7457 10.4119 -0.149789 -1.4681 -1.25983 -0.214257 -1.46009 -23.7884 0.29831 -1.44525 -3.77574 0.2983 -1.44526 86.7456 -37.2953 -110.026 35.4355 10.4387 -6.79347 -5.28221 -41.7514 -5.43944 -21.8286 2.36962 -17.8512 -87.261 -56.1561 83.8144 -26.3117 -12.3483 -13.1707 3.6019 40.8246 -4.67153 -0.396413 -0.166826 -8.9479 4.49407 -1.6949 -4.55608 0.586395 -0.883041 -2.13199 
66.6833 98.8531 65.5351 99.5833 -46.7615 97.2554 -175.517 19.7204 86.7961 -38.4222 3.05441 -0.159353 69.5605 7.43073 1.40844 13.1229 -10.4312 2.9934 175.415 0.96692 93.0279 -26.2236 -7.94321 -0.420898 72.81 -7.37242 -4.42329 27.0862 0.115465 1.94115 0.706945 8.17481 -90.2476 10.5279 1.29442 -0.607573 -1.14254 1.26644 -0.66397 -23.6827 1.41715 -0.190396 -3.67004 1.41718 -0.190385 86.8515 -35.0189 -110.743 34.2038 9.77793 -14.4032 -5.29147 -41.8782 -5.44512 -22.0499 2.53059 -18.5485 -86.7102 -56.208 84.5955 -21.203 -14.847 -7.68831 3.44432 37.7027 -4.51974 0.8083 -0.27261 -10.9207 3.21917 -2.11443 -2.30286 1.21228 -1.76181 -3.58817 
72.5945 98.2206 71.8168 100.93 -47.3846 96.9093 -177.4 17.6232 85.1008 -11.2655 3.85823 -1.34268 62.8935 3.45833 -1.3348 16.9526 -10.3112 6.25832 174.312 -6.51664 91.0317 -24.3773 -8.3801 -1.21644 76.2855 -9.61721 -5.49144 27.3249 0.0438757 1.85237 1.054 8.30697 -90.0501 10.2634 2.0769 -0.277697 -1.40595 2.06269 -0.368884 -23.9543 2.06431 0.359621 -3.94164 2.06431 0.35961 86.4397 -33.8431 -111.987 31.5973 10.1918 -21.0911 -5.33509 -42.512 -5.47098 -25.4005 3.65339 -21.7599 -86.4278 -57.7512 85.2017 -15.5209 -16.9883 -3.00718 3.31481 35.1725 -4.38664 0.718339 -0.307845 -12.4605 1.76597 -2.00787 0.457544 1.69268 -2.13284 -3.89307 
79.6711 96.3877 79.1716 103.023 -48.9051 97.9636 -178.246 17.9755 85.1731 -7.78016 1.20719 -1.23033 62.939 2.96366 -1.20767 14.5278 -10.6848 4.55874 171.944 -15.121 88.2184 -22.8447 -10.5337 -1.65123 78.5223 -11.5311 -5.26768 31.3056 -1.13124 0.197979 1.34386 8.36299 -89.9597 10.1488 2.69616 -0.146323 -1.51939 2.68711 -0.26494 -24.0757 2.61539 0.671313 -4.06305 2.61541 0.671312 85.8696 -34.213 -112.875 29.5986 10.7944 -25.4651 -5.36685 -42.9705 -5.49039 -28.5164 4.51612 -23.2589 -86.1604 -60.4571 85.9126 -11.2785 -18.1923 1.23369 3.04025 28.7362 -4.10396 -1.08658 -0.167016 -10.6345 -0.149085 -1.77573 1.78382 2.5116 -2.07945 -2.51179 
87.879 95.989 87.6458 103.125 -51.377 95.6717 -175.977 18.9273 83.9519 -18.2798 3.89313 -3.19103 56.722 -2.58852 -1.50739 14.4478 -11.3461 5.4338 169.218 -18.5575 83.4165 -25.9612 -12.6358 -3.70566 71.3823 -7.04725 -4.97778 42.2839 -5.65323 0.877917 1.5719 8.17593 -89.4751 10.5179 3.37203 0.739717 -1.14876 3.4013 0.59042 -23.7117 2.99372 1.71974 -3.69905 2.9937 1.71972 84.9503 -35.0556 -114.161 33.046 9.03062 -23.1225 -5.08911 -38.7698 -5.33054 -31.5205 4.89841 -22.7714 -85.5841 -61.1015 86.7633 -9.97115 -18.4482 3.24341 3.0578 29.1885 -4.12193 -3.48906 -0.0599452 -7.70048 0.508974 -1.70109 1.16473 0.108738 -1.87092 -2.89977 
